<svg width="114" height="64" viewBox="0 0 114 64" fill="none" xmlns="http://www.w3.org/2000/svg">
<path d="M24.9359 28.2812H20.4046C20.3005 28.2812 20.2484 28.2161 20.2484 28.0859L20.3265 0.605469C20.3265 0.501302 20.3786 0.449219 20.4828 0.449219H25.3656C25.4697 0.449219 25.5609 0.501302 25.639 0.605469L29.2914 5.87891L32.9242 0.605469C33.0023 0.501302 33.1 0.449219 33.2171 0.449219H38.1195C38.2367 0.449219 38.2953 0.501302 38.2953 0.605469L38.3734 28.0859C38.3734 28.2161 38.3213 28.2812 38.2171 28.2812H33.6859C33.5817 28.2812 33.5296 28.2161 33.5296 28.0859L33.4906 7.67578L29.2914 13.7695L25.1312 7.67578L25.0921 28.0859C25.0921 28.2161 25.0401 28.2812 24.9359 28.2812ZM55.2187 28.2812H42.289C42.1849 28.2812 42.1328 28.2161 42.1328 28.0859L42.1718 0.605469C42.1718 0.501302 42.2239 0.449219 42.3281 0.449219H55.1796C55.2838 0.449219 55.3359 0.514323 55.3359 0.644531V5.11719C55.3359 5.22135 55.2838 5.27344 55.1796 5.27344H46.9765V11.5234H55.1796C55.2838 11.5234 55.3359 11.5755 55.3359 11.6797L55.375 16.2109C55.375 16.3151 55.3229 16.3672 55.2187 16.3672H46.9765V23.3594H55.2187C55.3229 23.3594 55.375 23.4245 55.375 23.5547V28.125C55.375 28.2292 55.3229 28.2812 55.2187 28.2812ZM64.0171 28.2812H59.4859C59.3817 28.2812 59.3296 28.2161 59.3296 28.0859L59.4078 0.605469C59.4078 0.501302 59.4598 0.449219 59.564 0.449219H67.6499C69.0953 0.449219 70.4234 0.800781 71.6343 1.50391C72.8453 2.20703 73.8088 3.15104 74.5249 4.33594C75.2541 5.52083 75.6187 6.86198 75.6187 8.35938C75.6187 9.33594 75.469 10.2214 75.1695 11.0156C74.87 11.8099 74.5184 12.4805 74.1148 13.0273C73.7242 13.5742 73.3661 13.9779 73.0406 14.2383C74.4859 15.8398 75.2085 17.7214 75.2085 19.8828L75.2476 28.0859C75.2476 28.2161 75.1825 28.2812 75.0523 28.2812H70.521C70.4169 28.2812 70.3648 28.2422 70.3648 28.1641V19.8828C70.3648 18.9193 70.0263 18.0859 69.3492 17.3828C68.6721 16.6797 67.8388 16.3281 66.8492 16.3281H64.2124L64.1734 28.0859C64.1734 28.2161 64.1213 28.2812 64.0171 28.2812ZM67.6499 5.23438H64.2124V11.5234H67.6499C68.4703 11.5234 69.1994 11.2174 69.8374 10.6055C70.4885 9.99349 70.814 9.24479 70.814 8.35938C70.814 7.51302 70.5015 6.78385 69.8765 6.17188C69.2515 5.54688 68.5093 5.23438 67.6499 5.23438ZM85.6086 28.6719C84.1893 28.6719 82.8807 28.3073 81.6828 27.5781C80.4979 26.849 79.5408 25.8789 78.8117 24.668C78.0955 23.444 77.7375 22.1029 77.7375 20.6445L77.7765 7.96875C77.7765 6.48438 78.1346 5.14974 78.8507 3.96484C79.5539 2.76693 80.5044 1.8099 81.7023 1.09375C82.9002 0.364583 84.2023 0 85.6086 0C87.0669 0 88.3755 0.358073 89.5343 1.07422C90.7062 1.79036 91.6437 2.75391 92.3468 3.96484C93.063 5.16276 93.4211 6.4974 93.4211 7.96875L93.4601 20.6445C93.4601 22.1029 93.1086 23.4375 92.4054 24.6484C91.6893 25.8724 90.7388 26.849 89.5539 27.5781C88.369 28.3073 87.0539 28.6719 85.6086 28.6719ZM85.6086 23.8477C86.4158 23.8477 87.119 23.5221 87.7179 22.8711C88.3169 22.207 88.6164 21.4648 88.6164 20.6445L88.5773 7.96875C88.5773 7.08333 88.2974 6.33464 87.7375 5.72266C87.1776 5.11068 86.4679 4.80469 85.6086 4.80469C84.7882 4.80469 84.0851 5.10417 83.4992 5.70312C82.9132 6.30208 82.6203 7.05729 82.6203 7.96875V20.6445C82.6203 21.5169 82.9132 22.2721 83.4992 22.9102C84.0851 23.5352 84.7882 23.8477 85.6086 23.8477ZM4.68745 63.2812H0.195263C0.0650546 63.2812 -4.95911e-05 63.2161 -4.95911e-05 63.0859L0.0780754 35.6055C0.0780754 35.5013 0.130159 35.4492 0.234325 35.4492H13.0468C13.177 35.4492 13.2421 35.5013 13.2421 35.6055V40.1172C13.2421 40.2214 13.1901 40.2734 13.0859 40.2734H4.88276V46.4844H13.0859C13.1901 46.4844 13.2421 46.5495 13.2421 46.6797L13.2812 51.2109C13.2812 51.3151 13.2161 51.3672 13.0859 51.3672H4.88276V63.0859C4.88276 63.2161 4.81766 63.2812 4.68745 63.2812ZM21.9624 63.2812H17.4312C17.301 63.2812 17.2359 63.2161 17.2359 63.0859L17.2749 35.6055C17.2749 35.5013 17.327 35.4492 17.4312 35.4492H21.9234C22.0276 35.4492 22.0796 35.5013 22.0796 35.6055L22.1187 63.0859C22.1187 63.2161 22.0666 63.2812 21.9624 63.2812ZM30.3898 63.2812H26.3859C26.1776 63.2812 26.0734 63.1901 26.0734 63.0078L26.0343 35.7617C26.0343 35.5534 26.1385 35.4492 26.3468 35.4492H29.9601L36.7179 51.2109L36.5226 35.7617C36.5226 35.5534 36.6398 35.4492 36.8742 35.4492H40.839C40.9953 35.4492 41.0734 35.5534 41.0734 35.7617L41.1124 63.0469C41.1124 63.2031 41.0473 63.2812 40.9171 63.2812H37.4015L30.4679 48.5547L30.7609 62.9688C30.7609 63.1771 30.6372 63.2812 30.3898 63.2812ZM43.6414 63.0859L48.6023 35.6055C48.6283 35.5013 48.6934 35.4492 48.7976 35.4492H54.5984C54.7026 35.4492 54.7677 35.5013 54.7937 35.6055L59.5593 63.0859C59.5723 63.2161 59.5203 63.2812 59.4031 63.2812H54.9695C54.8393 63.2812 54.7677 63.2161 54.7546 63.0859L54.325 60.1562H48.8757L48.446 63.0859C48.433 63.2161 48.3679 63.2812 48.2507 63.2812H43.7976C43.6934 63.2812 43.6414 63.2161 43.6414 63.0859ZM51.8835 44.6484L51.6492 43.1641L51.4734 44.6484L49.6765 55.8789H53.5242L51.8835 44.6484ZM66.8148 63.2812H62.8109C62.6025 63.2812 62.4984 63.1901 62.4984 63.0078L62.4593 35.7617C62.4593 35.5534 62.5635 35.4492 62.7718 35.4492H66.3851L73.1429 51.2109L72.9476 35.7617C72.9476 35.5534 73.0648 35.4492 73.2992 35.4492H77.264C77.4203 35.4492 77.4984 35.5534 77.4984 35.7617L77.5374 63.0469C77.5374 63.2031 77.4723 63.2812 77.3421 63.2812H73.8265L66.8929 48.5547L67.1859 62.9688C67.1859 63.1771 67.0622 63.2812 66.8148 63.2812ZM88.7773 63.6719C87.332 63.6719 86.0104 63.3073 84.8125 62.5781C83.6276 61.849 82.6835 60.8724 81.9804 59.6484C81.2903 58.4115 80.9453 57.0378 80.9453 55.5273L80.9843 43.0469C80.9843 41.5625 81.3229 40.2214 82 39.0234C82.677 37.8125 83.608 36.8424 84.7929 36.1133C85.9908 35.3711 87.319 35 88.7773 35C90.2617 35 91.5833 35.3581 92.7421 36.0742C93.914 36.7904 94.845 37.7604 95.5351 38.9844C96.2382 40.1953 96.5898 41.5495 96.5898 43.0469V44.8828C96.5898 44.987 96.5377 45.0391 96.4335 45.0391H91.9414C91.8372 45.0391 91.7851 44.987 91.7851 44.8828V43.0469C91.7851 42.1615 91.4987 41.3997 90.9257 40.7617C90.3528 40.1237 89.6367 39.8047 88.7773 39.8047C87.8268 39.8047 87.0976 40.1302 86.5898 40.7812C86.082 41.4323 85.8281 42.1875 85.8281 43.0469V55.5273C85.8281 56.5039 86.1145 57.3047 86.6875 57.9297C87.2604 58.5417 87.957 58.8477 88.7773 58.8477C89.6367 58.8477 90.3528 58.5091 90.9257 57.832C91.4987 57.1419 91.7851 56.3737 91.7851 55.5273V53.6719C91.7851 53.5677 91.8372 53.5156 91.9414 53.5156H96.4726C96.5768 53.5156 96.6289 53.5677 96.6289 53.6719V55.5273C96.6289 57.0247 96.2773 58.3919 95.5742 59.6289C94.858 60.8529 93.914 61.8359 92.7421 62.5781C91.5703 63.3073 90.2487 63.6719 88.7773 63.6719ZM113.025 63.2812H100.095C99.9911 63.2812 99.939 63.2161 99.939 63.0859L99.9781 35.6055C99.9781 35.5013 100.03 35.4492 100.134 35.4492H112.986C113.09 35.4492 113.142 35.5143 113.142 35.6445V40.1172C113.142 40.2214 113.09 40.2734 112.986 40.2734H104.783V46.5234H112.986C113.09 46.5234 113.142 46.5755 113.142 46.6797L113.181 51.2109C113.181 51.3151 113.129 51.3672 113.025 51.3672H104.783V58.3594H113.025C113.129 58.3594 113.181 58.4245 113.181 58.5547V63.125C113.181 63.2292 113.129 63.2812 113.025 63.2812Z" fill="black"/>
</svg>
